<svg xmlns="http://www.w3.org/2000/svg" width="1200" height="508" viewBox="0 0 1200 508" font-family="ui-sans-serif, system-ui, sans-serif">
<defs>

  <pattern id="blocked-stripe" patternUnits="userSpaceOnUse" width="8" height="8" patternTransform="rotate(45)">
    <rect width="4" height="8" fill="#ef4444" opacity="0.5"/>
  </pattern>
<clipPath id="chart-clip">
    <rect x="216" y="0" width="968" height="508"/>
  </clipPath>
</defs>
<rect x="0" y="0" width="1200" height="508" fill="#ffffff"/>
<rect x="0" y="0" width="216" height="508" fill="#f8fafc"/>
<line x1="216" y1="60" x2="1184" y2="60" stroke="#e2e8f0" stroke-width="1"/>
<line x1="390.0715436674186" y1="60" x2="390.0715436674186" y2="508" stroke="#e2e8f0" stroke-width="1" opacity="0.5"/>
<line x1="390.0715436674186" y1="54" x2="390.0715436674186" y2="60" stroke="#64748b" stroke-width="1"/>
<text x="393.0715436674186" y="52" fill="#64748b" font-size="11" font-family="ui-sans-serif, system-ui, sans-serif">Mar 30</text>
<line x1="608.4408636803093" y1="60" x2="608.4408636803093" y2="508" stroke="#e2e8f0" stroke-width="1" opacity="0.5"/>
<line x1="608.4408636803093" y1="54" x2="608.4408636803093" y2="60" stroke="#64748b" stroke-width="1"/>
<text x="611.4408636803093" y="52" fill="#64748b" font-size="11" font-family="ui-sans-serif, system-ui, sans-serif">Apr 6</text>
<line x1="826.8101836932002" y1="60" x2="826.8101836932002" y2="508" stroke="#e2e8f0" stroke-width="1" opacity="0.5"/>
<line x1="826.8101836932002" y1="54" x2="826.8101836932002" y2="60" stroke="#64748b" stroke-width="1"/>
<text x="829.8101836932002" y="52" fill="#64748b" font-size="11" font-family="ui-sans-serif, system-ui, sans-serif">Apr 13</text>
<line x1="1045.179503706091" y1="60" x2="1045.179503706091" y2="508" stroke="#e2e8f0" stroke-width="1" opacity="0.5"/>
<line x1="1045.179503706091" y1="54" x2="1045.179503706091" y2="60" stroke="#64748b" stroke-width="1"/>
<text x="1048.179503706091" y="52" fill="#64748b" font-size="11" font-family="ui-sans-serif, system-ui, sans-serif">Apr 20</text>
<rect x="390.0715436674186" y="132" width="280.76055430228814" height="108" fill="rgba(99,102,241,0.06)" rx="4" clip-path="url(#chart-clip)"/>
<line x1="388.0715436674186" y1="136" x2="388.0715436674186" y2="236" stroke="#6366f1" stroke-width="2" opacity="0.7"/>
<rect x="390.0715436674186" y="240" width="530.3254914598775" height="144" fill="rgba(99,102,241,0.06)" rx="4" clip-path="url(#chart-clip)"/>
<line x1="388.0715436674186" y1="244" x2="388.0715436674186" y2="380" stroke="#6366f1" stroke-width="2" opacity="0.7"/>
<circle cx="22" cy="78" r="4" fill="#22c55e"/>
<text x="32" y="82" fill="#1e293b" font-size="12" font-family="ui-sans-serif, system-ui, sans-serif">Discovery &amp; planning</text>
<rect x="234.09345794392524" y="66.3" width="155.97808572349336" height="23.400000000000002" fill="#22c55e" rx="3" opacity="0.85" clip-path="url(#chart-clip)"/>
<circle cx="379.0715436674186" cy="78" r="9" fill="#fff" stroke="#22c55e" stroke-width="1.5" clip-path="url(#chart-clip)"/>
<text x="379.0715436674186" y="81.5" fill="#1e293b" font-size="8" font-weight="600" text-anchor="middle" font-family="ui-sans-serif, system-ui, sans-serif" clip-path="url(#chart-clip)">A</text>
<text x="240.09345794392524" y="82" fill="#fff" font-size="10" font-family="ui-sans-serif, system-ui, sans-serif" opacity="0.9" clip-path="url(#chart-clip)">Discovery &amp; planning</text>
<rect x="0" y="96" width="1200" height="36" fill="rgba(0,0,0,0.015)"/>
<text x="32" y="118" fill="#1e293b" font-size="12" font-style="italic" font-family="ui-sans-serif, system-ui, sans-serif">Kickoff complete</text>
<polygon points="390.0715436674186,105 399.0715436674186,114 390.0715436674186,123 381.0715436674186,114" fill="#d97706"/>
<text x="403.0715436674186" y="118" fill="#92400e" font-size="10" font-weight="600" font-family="ui-sans-serif, system-ui, sans-serif" clip-path="url(#chart-clip)">Kickoff complete</text>
<rect x="16" y="134" width="168" height="32" fill="#eff6ff" rx="3"/>
<text x="24" y="154" fill="#1d4ed8" font-size="12" font-weight="600" font-family="ui-sans-serif, system-ui, sans-serif">design</text>
<rect x="0" y="168" width="1200" height="36" fill="rgba(0,0,0,0.015)"/>
<circle cx="22" cy="186" r="4" fill="#22c55e"/>
<text x="32" y="190" fill="#1e293b" font-size="12" font-family="ui-sans-serif, system-ui, sans-serif">UX wireframes</text>
<rect x="390.0715436674186" y="174.3" width="124.7824685787948" height="23.400000000000002" fill="#22c55e" rx="3" opacity="0.85" clip-path="url(#chart-clip)"/>
<rect x="390.0715436674186" y="174.3" width="124.7824685787948" height="23.400000000000002" fill="rgba(0,0,0,0.2)" rx="3" clip-path="url(#chart-clip)"/>
<circle cx="503.8540122462134" cy="186" r="9" fill="#fff" stroke="#22c55e" stroke-width="1.5" clip-path="url(#chart-clip)"/>
<text x="503.8540122462134" y="189.5" fill="#1e293b" font-size="8" font-weight="600" text-anchor="middle" font-family="ui-sans-serif, system-ui, sans-serif" clip-path="url(#chart-clip)">C</text>
<text x="396.0715436674186" y="190" fill="#fff" font-size="10" font-family="ui-sans-serif, system-ui, sans-serif" opacity="0.9" clip-path="url(#chart-clip)">UX wireframes</text>
<circle cx="22" cy="222" r="4" fill="#3b82f6"/>
<text x="32" y="226" fill="#1e293b" font-size="12" font-family="ui-sans-serif, system-ui, sans-serif">Visual design</text>
<rect x="577.2452465356107" y="210.3" width="93.58685143409605" height="23.400000000000002" fill="#3b82f6" rx="3" opacity="0.85" clip-path="url(#chart-clip)"/>
<rect x="577.2452465356107" y="210.3" width="56.152110860457626" height="23.400000000000002" fill="rgba(0,0,0,0.2)" rx="3" clip-path="url(#chart-clip)"/>
<rect x="514.8540122462134" y="213.81" width="93.58685143409593" height="16.38" fill="#f59e0b" rx="3" opacity="0.25" clip-path="url(#chart-clip)"/>
<rect x="514.8540122462134" y="213.81" width="93.58685143409593" height="16.38" fill="none" stroke="#f59e0b" stroke-width="1" stroke-dasharray="3,2" rx="3" opacity="0.6" clip-path="url(#chart-clip)"/>
<rect x="577.2452465356107" y="210.3" width="3" height="23.400000000000002" fill="#f59e0b" rx="1" clip-path="url(#chart-clip)"/>
<circle cx="659.8320979697068" cy="222" r="9" fill="#fff" stroke="#3b82f6" stroke-width="1.5" clip-path="url(#chart-clip)"/>
<text x="659.8320979697068" y="225.5" fill="#1e293b" font-size="8" font-weight="600" text-anchor="middle" font-family="ui-sans-serif, system-ui, sans-serif" clip-path="url(#chart-clip)">C</text>
<text x="583.2452465356107" y="226" fill="#fff" font-size="10" font-family="ui-sans-serif, system-ui, sans-serif" opacity="0.9" clip-path="url(#chart-clip)">Visual design</text>
<rect x="0" y="240" width="1200" height="36" fill="rgba(0,0,0,0.015)"/>
<rect x="16" y="242" width="168" height="32" fill="#eff6ff" rx="3"/>
<text x="24" y="262" fill="#1d4ed8" font-size="12" font-weight="600" font-family="ui-sans-serif, system-ui, sans-serif">engineering</text>
<circle cx="22" cy="294" r="4" fill="#22c55e"/>
<text x="32" y="298" fill="#1e293b" font-size="12" font-family="ui-sans-serif, system-ui, sans-serif">API scaffold</text>
<rect x="390.0715436674186" y="282.3" width="93.5868514340961" height="23.400000000000002" fill="#22c55e" rx="3" opacity="0.85" clip-path="url(#chart-clip)"/>
<circle cx="472.6583951015147" cy="294" r="9" fill="#fff" stroke="#22c55e" stroke-width="1.5" clip-path="url(#chart-clip)"/>
<text x="472.6583951015147" y="297.5" fill="#1e293b" font-size="8" font-weight="600" text-anchor="middle" font-family="ui-sans-serif, system-ui, sans-serif" clip-path="url(#chart-clip)">B</text>
<text x="396.0715436674186" y="298" fill="#fff" font-size="10" font-family="ui-sans-serif, system-ui, sans-serif" opacity="0.9" clip-path="url(#chart-clip)">API scaffold</text>
<rect x="0" y="312" width="1200" height="36" fill="rgba(0,0,0,0.015)"/>
<circle cx="22" cy="330" r="4" fill="#3b82f6"/>
<text x="32" y="334" fill="#1e293b" font-size="12" font-family="ui-sans-serif, system-ui, sans-serif">Auth service</text>
<rect x="483.6583951015147" y="318.3" width="124.78246857879464" height="23.400000000000002" fill="#3b82f6" rx="3" opacity="0.85" clip-path="url(#chart-clip)"/>
<rect x="483.6583951015147" y="318.3" width="56.15211086045759" height="23.400000000000002" fill="rgba(0,0,0,0.2)" rx="3" clip-path="url(#chart-clip)"/>
<circle cx="597.4408636803093" cy="330" r="9" fill="#fff" stroke="#3b82f6" stroke-width="1.5" clip-path="url(#chart-clip)"/>
<text x="597.4408636803093" y="333.5" fill="#1e293b" font-size="8" font-weight="600" text-anchor="middle" font-family="ui-sans-serif, system-ui, sans-serif" clip-path="url(#chart-clip)">B</text>
<text x="489.6583951015147" y="334" fill="#fff" font-size="10" font-family="ui-sans-serif, system-ui, sans-serif" opacity="0.9" clip-path="url(#chart-clip)">Auth service</text>
<circle cx="22" cy="366" r="4" fill="#f59e0b"/>
<text x="32" y="370" fill="#1e293b" font-size="12" font-family="ui-sans-serif, system-ui, sans-serif">Core features</text>
<rect x="702.0277151144055" y="354.3" width="218.36932001289063" height="23.400000000000002" fill="#f59e0b" rx="3" opacity="0.85" clip-path="url(#chart-clip)"/>
<rect x="483.6583951015147" y="357.81" width="218.3693200128908" height="16.38" fill="#f59e0b" rx="3" opacity="0.25" clip-path="url(#chart-clip)"/>
<rect x="483.6583951015147" y="357.81" width="218.3693200128908" height="16.38" fill="none" stroke="#f59e0b" stroke-width="1" stroke-dasharray="3,2" rx="3" opacity="0.6" clip-path="url(#chart-clip)"/>
<rect x="702.0277151144055" y="354.3" width="3" height="23.400000000000002" fill="#f59e0b" rx="1" clip-path="url(#chart-clip)"/>
<circle cx="909.3970351272961" cy="366" r="9" fill="#fff" stroke="#f59e0b" stroke-width="1.5" clip-path="url(#chart-clip)"/>
<text x="909.3970351272961" y="369.5" fill="#1e293b" font-size="8" font-weight="600" text-anchor="middle" font-family="ui-sans-serif, system-ui, sans-serif" clip-path="url(#chart-clip)">A</text>
<text x="708.0277151144055" y="370" fill="#fff" font-size="10" font-family="ui-sans-serif, system-ui, sans-serif" opacity="0.9" clip-path="url(#chart-clip)">Core features</text>
<rect x="0" y="384" width="1200" height="36" fill="rgba(0,0,0,0.015)"/>
<circle cx="22" cy="402" r="4" fill="#94a3b8"/>
<text x="32" y="406" fill="#1e293b" font-size="12" font-family="ui-sans-serif, system-ui, sans-serif">Integration &amp; QA</text>
<rect x="920.3970351272961" y="390.3" width="155.97808572349356" height="23.400000000000002" fill="#94a3b8" rx="3" opacity="0.85" clip-path="url(#chart-clip)"/>
<circle cx="1065.3751208507897" cy="402" r="9" fill="#fff" stroke="#94a3b8" stroke-width="1.5" clip-path="url(#chart-clip)"/>
<text x="1065.3751208507897" y="405.5" fill="#1e293b" font-size="8" font-weight="600" text-anchor="middle" font-family="ui-sans-serif, system-ui, sans-serif" clip-path="url(#chart-clip)">B</text>
<circle cx="1050.9751208507896" cy="402" r="9" fill="#fff" stroke="#94a3b8" stroke-width="1.5" clip-path="url(#chart-clip)"/>
<text x="1050.9751208507896" y="405.5" fill="#1e293b" font-size="8" font-weight="600" text-anchor="middle" font-family="ui-sans-serif, system-ui, sans-serif" clip-path="url(#chart-clip)">A</text>
<text x="926.3970351272961" y="406" fill="#fff" font-size="10" font-family="ui-sans-serif, system-ui, sans-serif" opacity="0.9" clip-path="url(#chart-clip)">Integration &amp; QA</text>
<circle cx="22" cy="438" r="4" fill="#ef4444"/>
<text x="32" y="442" fill="#1e293b" font-size="12" font-family="ui-sans-serif, system-ui, sans-serif">Performance testing</text>
<rect x="1076.3751208507897" y="426.3" width="62.39123428939729" height="23.400000000000002" fill="#ef4444" rx="3" opacity="0.85" clip-path="url(#chart-clip)"/>
<rect x="1076.3751208507897" y="426.3" width="62.39123428939729" height="23.400000000000002" fill="url(#blocked-stripe)" rx="3" clip-path="url(#chart-clip)"/>
<circle cx="1127.766355140187" cy="438" r="9" fill="#fff" stroke="#ef4444" stroke-width="1.5" clip-path="url(#chart-clip)"/>
<text x="1127.766355140187" y="441.5" fill="#1e293b" font-size="8" font-weight="600" text-anchor="middle" font-family="ui-sans-serif, system-ui, sans-serif" clip-path="url(#chart-clip)">B</text>
<text x="1082.3751208507897" y="442" fill="#fff" font-size="10" font-family="ui-sans-serif, system-ui, sans-serif" opacity="0.9" clip-path="url(#chart-clip)">Performance testing</text>
<rect x="0" y="456" width="1200" height="36" fill="rgba(0,0,0,0.015)"/>
<text x="32" y="478" fill="#1e293b" font-size="12" font-style="italic" font-family="ui-sans-serif, system-ui, sans-serif">v2.0 Release</text>
<line x1="1076.3751208507897" y1="60" x2="1076.3751208507897" y2="508" stroke="#ef4444" stroke-width="1" opacity="0.35" stroke-dasharray="4,3" clip-path="url(#chart-clip)"/>
<polygon points="1076.3751208507897,465 1085.3751208507897,474 1076.3751208507897,483 1067.3751208507897,474" fill="#d97706"/>
<text x="1089.3751208507897" y="478" fill="#92400e" font-size="10" font-weight="600" font-family="ui-sans-serif, system-ui, sans-serif" clip-path="url(#chart-clip)">v2.0 Release</text>
<line x1="234.09345794392524" y1="60" x2="234.09345794392524" y2="508" stroke="#ef4444" stroke-width="1.5" opacity="0.7" stroke-dasharray="4,3"/>
<text x="237.09345794392524" y="56" fill="#ef4444" font-size="10" font-family="ui-sans-serif, system-ui, sans-serif">Today</text>
<line x1="216" y1="0" x2="216" y2="508" stroke="#e2e8f0" stroke-width="1"/>
</svg>